<svg version="1.0" preserveAspectRatio="xMidYMid meet" viewBox="348.2564679415073 38.879999664 753.2058492688413 743.579993574" zoomAndPan="magnify" xmlns:xlink="http://www.w3.org/1999/xlink" xmlns="http://www.w3.org/2000/svg" style="max-height: 500px" width="753.2058492688413" height="743.579993574"><defs><clipPath id="9451e5ee4d"><path clip-rule="nonzero" d="M 390 73 L 1061 73 L 1061 743 L 390 743 Z M 390 73"/></clipPath><clipPath id="0c4e4d11c7"><path clip-rule="nonzero" d="M 865.007812 860.222656 L 273.238281 547.246094 L 586.214844 -44.523438 L 1177.984375 268.453125 Z M 865.007812 860.222656"/></clipPath><clipPath id="6e55e5cd62"><path clip-rule="nonzero" d="M 569.121094 703.734375 C 732.535156 790.160156 935.070312 727.75 1021.496094 564.339844 C 1107.921875 400.925781 1045.511719 198.390625 882.097656 111.964844 C 718.683594 25.539062 516.152344 87.949219 429.726562 251.363281 C 343.300781 414.777344 405.710938 617.308594 569.121094 703.734375 Z M 569.121094 703.734375"/></clipPath><clipPath id="bf20e366e9"><path clip-rule="nonzero" d="M 0 0 L 671 0 L 671 670 L 0 670 Z M 0 0"/></clipPath><clipPath id="8902f439fc"><path clip-rule="nonzero" d="M 475.007812 787.222656 L -116.761719 474.246094 L 196.214844 -117.523438 L 787.984375 195.453125 Z M 475.007812 787.222656"/></clipPath><clipPath id="c54d6940ab"><path clip-rule="nonzero" d="M 179.121094 630.734375 C 342.535156 717.160156 545.070312 654.75 631.496094 491.339844 C 717.921875 327.925781 655.511719 125.390625 492.097656 38.964844 C 328.683594 -47.460938 126.152344 14.949219 39.726562 178.363281 C -46.699219 341.777344 15.710938 544.308594 179.121094 630.734375 Z M 179.121094 630.734375"/></clipPath><clipPath id="9d8f8fe490"><rect height="670" y="0" width="671" x="0"/></clipPath><clipPath id="84c37dd501"><path clip-rule="nonzero" d="M 364 50 L 1085 50 L 1085 777 L 364 777 Z M 364 50"/></clipPath><clipPath id="fe0cbf1074"><path clip-rule="nonzero" d="M 215.578125 456.011719 L 692.507812 -101.265625 L 1224.714844 354.207031 L 747.785156 911.484375 Z M 215.578125 456.011719"/></clipPath><clipPath id="2785a546dc"><path clip-rule="nonzero" d="M 215.578125 456.011719 L 692.507812 -101.265625 L 1224.714844 354.207031 L 747.785156 911.484375 Z M 215.578125 456.011719"/></clipPath></defs><g clip-path="url(#9451e5ee4d)"><g clip-path="url(#0c4e4d11c7)"><g clip-path="url(#6e55e5cd62)"><g transform="matrix(1, 0, 0, 1, 390, 73)"><g clip-path="url(#9d8f8fe490)"><g clip-path="url(#bf20e366e9)"><g clip-path="url(#8902f439fc)"><g clip-path="url(#c54d6940ab)"><path fill-rule="nonzero" fill-opacity="1" d="M 475.007812 787.222656 L -116.761719 474.246094 L 196.214844 -117.523438 L 787.984375 195.453125 Z M 475.007812 787.222656" fill="#87cb4a"/></g></g></g></g></g></g></g></g><g clip-path="url(#84c37dd501)"><g clip-path="url(#fe0cbf1074)"><g clip-path="url(#2785a546dc)"><path fill-rule="evenodd" fill-opacity="1" d="M 487.492188 145.359375 C 694.828125 -30.941406 920.664062 74.992188 996.992188 162.296875 C 1122.804688 306.214844 1113.359375 510.21875 968.414062 649.597656 C 880.492188 734.152344 795.789062 770.40625 719.351562 775.59375 C 603.429688 783.457031 505.253906 719.925781 440.558594 638.179688 C 322.207031 488.625 345.726562 265.902344 487.492188 145.363281 Z M 410.84375 342.800781 C 389.664062 434.78125 408.066406 536.03125 470.285156 614.65625 C 502.4375 655.289062 543.71875 691.246094 591.890625 713.777344 C 603.035156 678.175781 615.078125 643.933594 623 609.6875 C 636.402344 551.765625 637.710938 493.835938 599.867188 428.738281 C 570.179688 377.675781 495.976562 347.511719 410.847656 342.804688 Z M 803.652344 95.910156 C 717.402344 76.789062 612.300781 88.992188 512.050781 174.234375 C 467.535156 212.085938 436.085938 261.21875 418.613281 314.824219 C 511.921875 321.492188 591.679688 358.082031 624.449219 414.445312 C 689.910156 527.050781 650.554688 620.042969 618.308594 724.492188 C 648.921875 735.0625 681.910156 740.140625 716.792969 737.773438 C 786.140625 733.066406 862.378906 698.988281 942.148438 622.277344 C 996.847656 569.675781 1030.078125 506.769531 1041.730469 441.964844 C 1010.503906 432.9375 979.476562 428.375 949.140625 421.492188 C 892.140625 408.554688 837.503906 387.933594 787.742188 321.0625 C 736.601562 252.332031 762.207031 167.3125 803.660156 95.910156 Z M 1045.449219 413.496094 C 1051.972656 333.996094 1026.371094 253.496094 968.457031 187.246094 C 941.171875 156.035156 892.546875 122.511719 832.152344 103.535156 C 813.796875 133.859375 797.875 167.085938 790.992188 200.394531 C 783.578125 236.273438 786.859375 272.253906 810.550781 304.09375 C 855.148438 364.035156 904.339844 382.175781 955.433594 393.765625 C 984.953125 400.464844 1015.089844 405.113281 1045.453125 413.496094 Z M 1045.449219 413.496094" fill="#ffffff"/></g></g></g></svg>