<svg version="1.0" preserveAspectRatio="xMidYMid meet" viewBox="348.2564679415073 25.919999776 753.2058492688413 758.159993448" zoomAndPan="magnify" xmlns:xlink="http://www.w3.org/1999/xlink" xmlns="http://www.w3.org/2000/svg" style="max-height: 500px" width="753.2058492688413" height="758.159993448"><defs><clipPath id="13967488fb"><path clip-rule="nonzero" d="M 370 58 L 1076 58 L 1076 765 L 370 765 Z M 370 58"/></clipPath><clipPath id="7fc45ef1fe"><path clip-rule="nonzero" d="M 754.910156 909.066406 L 225.335938 443.421875 L 690.984375 -86.152344 L 1220.558594 379.492188 Z M 754.910156 909.066406"/></clipPath><clipPath id="8867c26e6f"><path clip-rule="nonzero" d="M 490.125 676.242188 C 636.363281 804.828125 859.152344 790.519531 987.734375 644.28125 C 1116.320312 498.042969 1102.007812 275.253906 955.769531 146.667969 C 809.53125 18.085938 586.746094 32.394531 458.160156 178.632812 C 329.574219 324.871094 343.886719 547.660156 490.125 676.242188 Z M 490.125 676.242188"/></clipPath><clipPath id="acc7f48f4c"><path clip-rule="nonzero" d="M 0 0 L 706 0 L 706 707 L 0 707 Z M 0 0"/></clipPath><clipPath id="faf79c1cfa"><path clip-rule="nonzero" d="M 384.910156 851.066406 L -144.664062 385.421875 L 320.984375 -144.152344 L 850.558594 321.492188 Z M 384.910156 851.066406"/></clipPath><clipPath id="c602cc4ad0"><path clip-rule="nonzero" d="M 120.125 618.242188 C 266.363281 746.828125 489.152344 732.519531 617.734375 586.28125 C 746.320312 440.042969 732.007812 217.253906 585.769531 88.667969 C 439.53125 -39.914062 216.746094 -25.605469 88.160156 120.632812 C -40.425781 266.871094 -26.113281 489.660156 120.125 618.242188 Z M 120.125 618.242188"/></clipPath><clipPath id="62c2d22570"><rect height="707" y="0" width="706" x="0"/></clipPath><clipPath id="bac70ad719"><path clip-rule="nonzero" d="M 358 32 L 1096 32 L 1096 782 L 358 782 Z M 358 32"/></clipPath><clipPath id="e0ad863ead"><path clip-rule="nonzero" d="M 747.429688 -111.960938 L 1237.453125 420.667969 L 692.679688 921.859375 L 202.660156 389.234375 Z M 747.429688 -111.960938"/></clipPath><clipPath id="e3b259455c"><path clip-rule="nonzero" d="M 747.429688 -111.960938 L 1237.453125 420.667969 L 692.679688 921.859375 L 202.660156 389.234375 Z M 747.429688 -111.960938"/></clipPath></defs><g clip-path="url(#13967488fb)"><g clip-path="url(#7fc45ef1fe)"><g clip-path="url(#8867c26e6f)"><g transform="matrix(1, 0, 0, 1, 370, 58)"><g clip-path="url(#62c2d22570)"><g clip-path="url(#acc7f48f4c)"><g clip-path="url(#faf79c1cfa)"><g clip-path="url(#c602cc4ad0)"><path fill-rule="nonzero" fill-opacity="1" d="M 384.910156 851.066406 L -144.664062 385.421875 L 320.984375 -144.152344 L 850.558594 321.492188 Z M 384.910156 851.066406" fill="#f6a15c"/></g></g></g></g></g></g></g></g><g clip-path="url(#bac70ad719)"><g clip-path="url(#e0ad863ead)"><g clip-path="url(#e3b259455c)"><path fill-rule="nonzero" fill-opacity="1" d="M 673.640625 36.960938 C 744.789062 24.890625 819.785156 35 885.957031 70.863281 C 962.773438 112.496094 1025.609375 180.917969 1064.234375 258.007812 C 1104.535156 338.425781 1119.894531 457 1024.941406 598.273438 C 1000.488281 634.652344 971.253906 667.910156 937.539062 695.789062 C 877.511719 745.402344 803.222656 776.839844 723.277344 781.054688 C 687.9375 782.921875 652.363281 778.726562 618.128906 768.855469 L 618.054688 768.828125 C 613.148438 767.410156 608.28125 765.863281 603.441406 764.226562 L 602.699219 763.996094 C 602.699219 763.996094 602.683594 763.980469 602.675781 763.96875 C 569.894531 752.730469 538.585938 736.207031 510.222656 714.699219 C 448.585938 668 401.644531 602.585938 377.011719 530.027344 C 352.585938 458.097656 353.363281 380.53125 373.664062 310.425781 C 394.015625 240.109375 433.671875 176.042969 487.035156 127.605469 C 538.515625 80.898438 603.855469 48.785156 673.632812 36.953125 Z M 727.875 54.394531 C 660.492188 55.386719 595.183594 77.949219 540.800781 114.390625 C 540.140625 114.839844 539.476562 115.304688 538.816406 115.753906 C 524.371094 134.441406 512.980469 153.257812 506.453125 176.21875 C 499.835938 199.492188 497.597656 223.699219 497.042969 247.816406 C 495.925781 296.71875 502.019531 345.574219 514.585938 392.832031 C 522.777344 423.636719 533.828125 453.503906 547.480469 482.085938 C 568.738281 476.953125 589.144531 467.796875 607.546875 455.898438 C 648.25 429.589844 678.378906 389.449219 697.867188 345.492188 C 708.265625 322.027344 715.996094 297.414062 721.726562 272.425781 C 727.632812 246.722656 730.75 220.546875 735.230469 194.582031 C 743.894531 144.28125 763.167969 89.1875 809.652344 64.003906 C 782.792969 57 755.210938 53.988281 727.863281 54.402344 Z M 927.085938 125.183594 C 898.796875 102.261719 867.339844 83.503906 833.488281 71.34375 C 832.863281 71.917969 832.101562 72.410156 831.175781 72.78125 C 779.496094 92.839844 761.933594 150.089844 753.734375 199.886719 C 749.320312 226.6875 746.109375 253.652344 740.011719 280.160156 C 734.109375 305.816406 726.066406 331.007812 715.25 355.03125 C 694.019531 402.144531 662.519531 443.757812 619.347656 472.734375 C 600.386719 485.46875 579.257812 495.339844 557.171875 501.3125 C 572.996094 531.199219 591.710938 559.5 613.035156 585.78125 C 639.476562 575.289062 665.183594 562.695312 690.054688 549.589844 C 781.652344 501.316406 865.371094 435.929688 933.316406 357.730469 C 951.507812 336.792969 968.804688 314.933594 983.566406 291.417969 C 997.925781 268.542969 1008.351562 244.734375 1016.421875 219.101562 C 989.996094 180.410156 958.238281 150.441406 927.074219 125.191406 Z M 1062.265625 315.289062 C 1053.953125 287.644531 1043.027344 263.175781 1030.367188 241.242188 C 1024.414062 259.492188 1015.585938 277.074219 1006.054688 293.386719 C 993.308594 315.210938 978.113281 335.539062 962.066406 355.03125 C 927.699219 396.761719 889.671875 436.105469 848.105469 470.710938 C 806.085938 505.683594 760.714844 536.78125 712.90625 563.28125 C 685.855469 578.28125 657.777344 592.410156 628.929688 604.398438 C 638.722656 615.375 648.992188 625.945312 659.722656 636.074219 C 675.707031 628.519531 693.003906 623.519531 710.164062 620.554688 C 746.410156 614.277344 783.28125 616.113281 819.820312 618.078125 C 856.449219 620.054688 893.917969 622.332031 930.054688 614.554688 C 968.261719 606.332031 1006.304688 585.929688 1025.3125 550.476562 C 1026.300781 548.621094 1027.640625 547.550781 1029.101562 547.085938 C 1031.996094 541.90625 1034.8125 536.6875 1037.542969 531.417969 C 1067.132812 474.195312 1084.046875 387.582031 1062.292969 315.28125 Z M 985.847656 612.332031 C 978.304688 616.691406 970.359375 620.425781 962.21875 623.507812 C 928.292969 636.402344 891.945312 639.039062 855.917969 638.207031 C 797.183594 636.851562 730.503906 626.058594 674.746094 649.738281 C 716.726562 686.429688 764.285156 716.433594 815.15625 739.191406 C 835.171875 732.078125 854.46875 723.140625 872.710938 712.570312 C 916.824219 687.039062 954.507812 652.320312 985.839844 612.339844 Z M 791.261719 746.699219 C 741.464844 725.394531 695.476562 695.804688 654.914062 659.992188 C 654.914062 659.992188 654.894531 660.007812 654.894531 660.007812 C 653.222656 661.046875 651.566406 662.121094 649.917969 663.238281 C 634.128906 673.964844 620.734375 688.953125 615.324219 707.535156 C 611.691406 720.027344 611.976562 732.796875 616.203125 744.617188 C 632.964844 750.03125 650.191406 753.914062 667.710938 756.078125 C 709.667969 761.265625 751.601562 757.578125 791.269531 746.710938 Z M 482.480469 659.683594 C 514.011719 692.320312 551.605469 718.667969 592.617188 735.863281 C 590.070312 712.449219 599.691406 687.683594 614.773438 669.738281 C 622.253906 660.832031 630.992188 653.257812 640.566406 646.871094 C 640.566406 646.871094 640.566406 646.871094 640.574219 646.863281 C 629.125 635.984375 618.144531 624.609375 607.6875 612.753906 C 596.125 617.046875 584.457031 620.96875 572.675781 624.417969 C 548.992188 631.335938 524.355469 635.828125 499.601562 635.457031 C 485.160156 635.246094 470.03125 633.316406 455.859375 628.902344 C 464.152344 639.621094 473.039062 649.910156 482.480469 659.683594 Z M 432.890625 595.554688 C 435.578125 595.148438 438.46875 595.664062 441.144531 596.933594 C 459.082031 605.453125 477.3125 610.652344 497.21875 611.332031 C 517.523438 612.027344 537.75 608.839844 557.410156 603.941406 C 568.941406 601.074219 580.355469 597.625 591.652344 593.722656 C 581.3125 580.863281 571.550781 567.535156 562.429688 553.789062 C 552.210938 538.378906 542.859375 522.414062 534.34375 505.996094 C 517.121094 508.445312 499.574219 508.449219 482.234375 505.523438 C 456.8125 501.230469 432.136719 491.445312 411.195312 476.316406 C 401.023438 468.972656 391.570312 460.492188 383.496094 450.878906 C 384.144531 457.226562 384.964844 463.554688 385.96875 469.875 C 393.027344 514.074219 409.300781 556.882812 432.898438 595.546875 Z M 381.773438 411.933594 C 386.933594 419.320312 391.464844 427.121094 397.117188 434.167969 C 403.695312 442.382812 411.242188 449.925781 419.636719 456.277344 C 437.089844 469.5 457.179688 478.582031 478.535156 483.328125 C 493.804688 486.71875 509.257812 487.457031 524.503906 485.980469 C 492.007812 416.199219 474.652344 339.238281 473.882812 262.378906 C 473.601562 233.691406 475.441406 204.753906 482.238281 176.796875 C 483.671875 170.914062 485.363281 164.898438 487.351562 158.902344 C 456.480469 190.429688 431.414062 227.835938 413.363281 268.355469 C 393.570312 312.738281 382.367188 362.023438 381.78125 411.925781 Z M 381.773438 411.933594" fill="#ffffff"/></g></g></g></svg>