<svg version="1.0" preserveAspectRatio="xMidYMid meet" viewBox="348.2564679415073 25.919999776 753.2058492688413 758.159993448" zoomAndPan="magnify" xmlns:xlink="http://www.w3.org/1999/xlink" xmlns="http://www.w3.org/2000/svg" style="max-height: 500px" width="753.2058492688413" height="758.159993448"><defs><clipPath id="b8749be688"><path clip-rule="nonzero" d="M 409 57 L 1030 57 L 1030 752 L 409 752 Z M 409 57"/></clipPath><clipPath id="cd2af4434c"><path clip-rule="nonzero" d="M 661.894531 -75.417969 L 1172.460938 576.429688 L 778.042969 885.359375 L 267.480469 233.507812 Z M 661.894531 -75.417969"/></clipPath><clipPath id="bf83bb68a3"><path clip-rule="nonzero" d="M 661.894531 -75.417969 L 1172.460938 576.429688 L 778.042969 885.359375 L 267.480469 233.507812 Z M 661.894531 -75.417969"/></clipPath></defs><path stroke-miterlimit="4" stroke-opacity="1" stroke-width="100" stroke="#ffffff" d="M 58.515807 57.8653 C 221.840181 84.891824 353.76324 86.639256 454.277649 63.108272" stroke-linejoin="miter" fill="none" transform="matrix(-0.576791, 0.479388, -0.479388, -0.576791, 748.897529, 132.449413)" stroke-linecap="round"/><path stroke-miterlimit="4" stroke-opacity="1" stroke-width="63" stroke="#ffffff" d="M 37.430321 37.062907 C 197.377696 67.879706 324.503321 69.222067 418.792603 41.09201" stroke-linejoin="miter" fill="none" transform="matrix(-0.598064, 0.45257, -0.45257, -0.598064, 705.241315, 103.897997)" stroke-linecap="round"/><path stroke-miterlimit="4" stroke-opacity="1" stroke-width="63" stroke="#ffffff" d="M 38.008989 37.568463 C 178.151507 67.402604 289.973864 68.829711 373.464658 41.847424" stroke-linejoin="miter" fill="none" transform="matrix(-0.58887, 0.464469, -0.464469, -0.58887, 680.116916, 95.410357)" stroke-linecap="round"/><path stroke-miterlimit="4" stroke-opacity="1" stroke-width="48" stroke="#84a6ff" d="M 33.460253 82.941852 C 85.663614 4.314 137.865979 4.351961 190.07053 83.05161" stroke-linejoin="miter" fill="none" transform="matrix(-0.593734, 0.458235, -0.458235, -0.593734, 1044.014018, 683.397106)" stroke-linecap="round"/><path stroke-miterlimit="4" stroke-opacity="1" stroke-width="100" stroke="#ffffff" d="M 56.845193 56.455062 C 277.846585 86.060178 454.42468 87.585816 586.572139 61.032606" stroke-linejoin="miter" fill="none" transform="matrix(-0.483034, -0.57374, 0.57374, -0.483034, 851.450459, 608.255197)" stroke-linecap="round"/><path stroke-miterlimit="4" stroke-opacity="1" stroke-width="100" stroke="#ffffff" d="M 56.845228 56.448872 C 277.84725 86.061327 454.421361 87.58361 586.572804 61.033755" stroke-linejoin="miter" fill="none" transform="matrix(-0.483034, -0.57374, 0.57374, -0.483034, 886.325122, 585.674103)" stroke-linecap="round"/><path stroke-miterlimit="4" stroke-opacity="1" stroke-width="100" stroke="#ffffff" d="M 56.845476 56.450188 C 277.846869 86.055303 454.42161 87.584926 586.573053 61.03507" stroke-linejoin="miter" fill="none" transform="matrix(-0.483034, -0.57374, 0.57374, -0.483034, 825.320581, 634.792068)" stroke-linecap="round"/><path stroke-miterlimit="4" stroke-opacity="1" stroke-width="100" stroke="#ffffff" d="M 59.045391 58.231728 C 211.062478 84.591715 334.200396 86.377509 428.451904 63.590461" stroke-linejoin="miter" fill="none" transform="matrix(0.618691, -0.423935, 0.423935, 0.618691, 693.157651, 673.339906)" stroke-linecap="round"/><path stroke-miterlimit="4" stroke-opacity="1" stroke-width="100" stroke="#ffffff" d="M 60.204211 59.200974 C 184.822953 83.6816 286.597017 85.587218 365.542258 64.922288" stroke-linejoin="miter" fill="none" transform="matrix(0.620692, -0.421, 0.421, 0.620692, 731.868257, 689.326929)" stroke-linecap="round"/><g clip-path="url(#b8749be688)"><g clip-path="url(#cd2af4434c)"><g clip-path="url(#bf83bb68a3)"><path fill-rule="nonzero" fill-opacity="1" d="M 973.851562 724.78125 C 982.660156 724.683594 988.355469 717.828125 992.6875 710.414062 C 1003.308594 692.25 1010.476562 669.800781 1015.761719 652.039062 C 1034.539062 589.027344 1032.609375 521.007812 1017.863281 457.378906 C 1000.363281 381.871094 964.566406 311.007812 916.867188 250.109375 C 870.105469 190.40625 811.324219 139.535156 743.90625 104.507812 C 685.835938 74.320312 620.386719 55.445312 554.546875 57.65625 C 536.894531 58.246094 519.292969 60.390625 502.066406 64.269531 C 493.730469 66.148438 485.925781 67.90625 478.828125 70.582031 C 472.40625 73.007812 466.167969 78.035156 465.234375 85.773438 C 458.371094 84.664062 454.941406 87.71875 452.191406 92.335938 C 444.621094 105.121094 437.839844 118.230469 432.308594 132.039062 C 420.761719 160.820312 414.082031 191.421875 411.398438 222.28125 C 405.382812 291.542969 419.078125 361.816406 445.042969 425.972656 C 464.371094 473.703125 490.726562 518.515625 522.46875 559.042969 C 608.15625 668.4375 743.644531 757.449219 887.3125 751.410156 C 906.0625 750.621094 930.347656 750.640625 950.921875 744.523438 C 961.226562 741.453125 973 732.753906 973.851562 724.78125 Z M 418.769531 264.324219 C 418.554688 253.984375 418.789062 243.75 419.429688 233.628906 C 449.917969 201.21875 484.585938 169.449219 522.898438 139.441406 C 555.441406 113.953125 588.585938 91.316406 621.585938 71.707031 C 629.707031 73.125 637.882812 74.835938 646.070312 76.851562 C 666.6875 81.925781 687.402344 88.863281 707.953125 97.578125 C 660.914062 123.390625 612.496094 155.457031 564.742188 192.859375 C 511.019531 234.9375 463.65625 279.46875 424.59375 323.90625 C 421.128906 303.789062 419.179688 283.867188 418.769531 264.324219 Z M 863.753906 565.042969 C 858.609375 567.957031 852.203125 566.589844 848.65625 562.0625 C 848.300781 561.605469 847.96875 561.113281 847.679688 560.589844 C 843.972656 554.050781 840.1875 547.539062 836.335938 541.0625 C 826.144531 547.316406 815.675781 552.453125 805.167969 556.332031 C 801.460938 557.695312 797.4375 556.441406 795.128906 553.496094 C 794.578125 552.792969 794.125 551.992188 793.792969 551.097656 C 792.105469 546.511719 794.449219 541.421875 799.027344 539.722656 C 809.375 535.902344 818.832031 531.011719 827.148438 525.898438 C 820.730469 515.46875 814.171875 505.152344 807.523438 494.992188 C 797.582031 501.675781 786.097656 508.59375 773.574219 514.660156 C 769.761719 516.511719 765.261719 515.363281 762.75 512.15625 C 762.367188 511.671875 762.03125 511.128906 761.75 510.546875 C 759.617188 506.148438 761.46875 500.855469 765.863281 498.722656 C 777.605469 493.042969 788.402344 486.539062 797.75 480.234375 C 790.417969 469.332031 783.011719 458.628906 775.632812 448.203125 C 765.175781 455.5 752.957031 463.425781 739.84375 470.746094 C 735.984375 472.894531 731.207031 471.863281 728.566406 468.492188 C 728.285156 468.136719 728.03125 467.742188 727.804688 467.339844 C 725.421875 463.070312 726.949219 457.679688 731.21875 455.296875 C 743.566406 448.402344 755.144531 440.929688 765.320312 433.8125 C 756.332031 421.394531 747.402344 409.417969 738.695312 397.988281 C 728.15625 405.578125 716.441406 414.261719 704.597656 423.539062 C 700.753906 426.550781 695.1875 425.875 692.175781 422.027344 C 689.160156 418.183594 689.835938 412.617188 693.683594 409.605469 C 705.558594 400.300781 717.285156 391.589844 727.898438 383.957031 C 726.152344 381.707031 724.414062 379.484375 722.691406 377.285156 C 716.011719 368.757812 709.539062 360.628906 703.316406 352.929688 C 693.953125 361.105469 683.523438 370.847656 673.488281 381.609375 C 670.152344 385.183594 664.550781 385.375 660.976562 382.039062 C 660.632812 381.714844 660.320312 381.382812 660.039062 381.023438 C 657.398438 377.65625 657.523438 372.769531 660.554688 369.539062 C 671.203125 358.136719 682.253906 347.820312 692.128906 339.226562 C 691.414062 338.355469 690.703125 337.496094 689.996094 336.636719 C 682.023438 326.96875 674.335938 317.847656 667.09375 309.359375 C 658.21875 317.273438 648.601562 326.78125 639.644531 337.574219 C 636.519531 341.332031 630.949219 341.851562 627.179688 338.734375 C 626.679688 338.320312 626.234375 337.867188 625.855469 337.378906 C 623.339844 334.171875 623.316406 329.539062 626.019531 326.269531 C 635.675781 314.632812 646.007812 304.425781 655.539062 295.945312 C 646.464844 285.5 638.242188 276.257812 631.183594 268.425781 C 623.164062 275.933594 614.925781 284.992188 607.773438 295.542969 C 605.035156 299.59375 599.523438 300.636719 595.476562 297.902344 C 594.695312 297.375 594.019531 296.734375 593.46875 296.03125 C 591.160156 293.082031 590.90625 288.875 593.117188 285.605469 C 599.890625 275.613281 608.066406 266.007812 617.410156 257.046875 C 618.023438 256.464844 618.621094 255.890625 619.238281 255.316406 C 609.644531 244.898438 604.046875 239.089844 603.894531 238.941406 C 599.367188 234.253906 599.480469 226.789062 604.167969 222.261719 C 608.855469 217.730469 616.324219 217.84375 620.851562 222.535156 C 621.007812 222.691406 627.058594 228.964844 637.390625 240.210938 C 638.835938 239.132812 640.296875 238.074219 641.777344 237.039062 C 656.703125 226.519531 668.042969 221.289062 668.519531 221.070312 C 672.964844 219.042969 678.214844 220.996094 680.253906 225.449219 C 682.28125 229.890625 680.328125 235.144531 675.886719 237.171875 C 675.785156 237.21875 665.28125 242.089844 651.625 251.753906 C 650.894531 252.273438 650.132812 252.816406 649.367188 253.382812 C 656.476562 261.277344 664.675781 270.519531 673.71875 280.921875 C 674.277344 280.5 674.820312 280.074219 675.347656 279.675781 C 689.566406 268.925781 699.734375 263.042969 700.15625 262.800781 C 704.394531 260.355469 709.804688 261.816406 712.242188 266.042969 C 714.6875 270.28125 713.226562 275.691406 708.996094 278.128906 C 708.765625 278.257812 699.089844 283.898438 685.785156 293.984375 C 685.625 294.113281 685.460938 294.242188 685.289062 294.355469 C 692.542969 302.855469 700.21875 311.964844 708.175781 321.609375 C 708.875 322.460938 709.574219 323.308594 710.285156 324.167969 C 724.015625 313.328125 733.476562 307.019531 733.882812 306.753906 C 737.957031 304.050781 743.449219 305.152344 746.152344 309.226562 C 748.851562 313.296875 747.753906 318.792969 743.679688 321.492188 C 743.507812 321.609375 734.417969 327.679688 721.480469 337.882812 C 730.25 348.722656 738.828125 359.542969 747.203125 370.34375 C 761.535156 360.429688 771.011719 354.316406 771.203125 354.203125 C 775.320312 351.554688 780.78125 352.75 783.429688 356.863281 C 786.078125 360.980469 784.882812 366.441406 780.765625 369.089844 C 780.566406 369.210938 771.609375 374.988281 757.996094 384.390625 C 767.042969 396.273438 775.828125 408.097656 784.328125 419.816406 C 797.875 409.328125 806.214844 401.714844 806.378906 401.566406 C 809.976562 398.257812 815.574219 398.507812 818.882812 402.105469 C 822.191406 405.703125 821.941406 411.300781 818.34375 414.609375 C 817.988281 414.9375 809.519531 422.675781 795.585938 433.5 C 795.28125 433.738281 794.96875 433.984375 794.652344 434.230469 C 802.292969 445.011719 809.679688 455.714844 816.804688 466.304688 C 817.640625 465.652344 818.441406 465.003906 819.226562 464.375 C 832.296875 453.804688 840.101562 445.714844 840.179688 445.636719 C 843.558594 442.117188 849.171875 442.003906 852.691406 445.382812 C 856.210938 448.761719 856.335938 454.363281 852.957031 457.886719 C 852.621094 458.238281 844.472656 466.699219 830.628906 477.925781 C 829.367188 478.949219 828.042969 480.003906 826.644531 481.097656 C 833.53125 491.613281 840.140625 502.015625 846.472656 512.285156 C 848.480469 510.675781 850.335938 509.117188 852.046875 507.636719 C 864.707031 496.707031 871.945312 487.664062 872.015625 487.574219 C 875.046875 483.746094 880.617188 483.109375 884.445312 486.144531 C 888.269531 489.179688 888.917969 494.757812 885.882812 498.585938 C 885.558594 498.996094 877.765625 508.753906 863.976562 520.726562 C 861.269531 523.074219 858.523438 525.347656 855.726562 527.539062 C 860.035156 534.757812 864.1875 541.890625 868.191406 548.964844 C 871.402344 554.628906 869.421875 561.828125 863.753906 565.042969 Z M 814.027344 737.421875 C 804.039062 735.632812 794.046875 733.40625 784.070312 730.714844 C 765.203125 725.644531 746.320312 718.96875 727.617188 710.785156 C 780.121094 683.507812 834.699219 648.1875 888.421875 606.109375 C 936.175781 568.707031 978.90625 529.382812 1015.234375 489.894531 C 1018.773438 511.933594 1020.546875 533.707031 1020.535156 554.941406 C 1020.53125 563.371094 1020.230469 571.71875 1019.664062 579.945312 C 992.703125 607.285156 962.800781 634.042969 930.261719 659.53125 C 891.949219 689.539062 852.800781 715.585938 814.027344 737.421875 Z M 814.027344 737.421875" fill="#84a6ff"/></g></g></g></svg>