<svg version="1.0" preserveAspectRatio="xMidYMid meet" viewBox="348.2564679415073 25.919999776 753.2058492688413 758.159993448" zoomAndPan="magnify" xmlns:xlink="http://www.w3.org/1999/xlink" xmlns="http://www.w3.org/2000/svg" style="max-height: 500px" width="753.2058492688413" height="758.159993448"><defs><clipPath id="b9432ce17c"><path clip-rule="nonzero" d="M 367 60 L 1073 60 L 1073 766 L 367 766 Z M 367 60"/></clipPath><clipPath id="c5de8392ad"><path clip-rule="nonzero" d="M 751.964844 910.320312 L 222.386719 444.671875 L 688.035156 -84.902344 L 1217.609375 380.746094 Z M 751.964844 910.320312"/></clipPath><clipPath id="e0a97c98e0"><path clip-rule="nonzero" d="M 487.175781 677.496094 C 633.414062 806.082031 856.203125 791.769531 984.785156 645.53125 C 1113.371094 499.292969 1099.058594 276.507812 952.820312 147.921875 C 806.582031 19.335938 583.796875 33.648438 455.210938 179.886719 C 326.625 326.125 340.9375 548.914062 487.175781 677.496094 Z M 487.175781 677.496094"/></clipPath><clipPath id="4814d8a6d3"><path clip-rule="nonzero" d="M 0 0 L 706 0 L 706 706 L 0 706 Z M 0 0"/></clipPath><clipPath id="7ffe8c8704"><path clip-rule="nonzero" d="M 384.964844 850.320312 L -144.613281 384.671875 L 321.035156 -144.902344 L 850.609375 320.746094 Z M 384.964844 850.320312"/></clipPath><clipPath id="f56aebc57c"><path clip-rule="nonzero" d="M 120.175781 617.496094 C 266.414062 746.082031 489.203125 731.769531 617.785156 585.53125 C 746.371094 439.292969 732.058594 216.507812 585.820312 87.921875 C 439.582031 -40.664062 216.796875 -26.351562 88.210938 119.886719 C -40.375 266.125 -26.0625 488.914062 120.175781 617.496094 Z M 120.175781 617.496094"/></clipPath><clipPath id="fe78aea2b7"><rect height="706" y="0" width="706" x="0"/></clipPath><clipPath id="9a3e222947"><path clip-rule="nonzero" d="M 359.445312 45.695312 L 1080.195312 45.695312 L 1080.195312 766.445312 L 359.445312 766.445312 Z M 359.445312 45.695312"/></clipPath></defs><g clip-path="url(#b9432ce17c)"><g clip-path="url(#c5de8392ad)"><g clip-path="url(#e0a97c98e0)"><g transform="matrix(1, 0, 0, 1, 367, 60)"><g clip-path="url(#fe78aea2b7)"><g clip-path="url(#4814d8a6d3)"><g clip-path="url(#7ffe8c8704)"><g clip-path="url(#f56aebc57c)"><path fill-rule="nonzero" fill-opacity="1" d="M 384.964844 850.320312 L -144.613281 384.671875 L 321.035156 -144.902344 L 850.609375 320.746094 Z M 384.964844 850.320312" fill="#ab9bfa"/></g></g></g></g></g></g></g></g><g clip-path="url(#9a3e222947)"><path fill-rule="nonzero" fill-opacity="1" d="M 719.992188 45.695312 C 521.183594 45.695312 359.445312 207.4375 359.445312 406.246094 C 359.445312 605.054688 521.183594 766.796875 719.992188 766.796875 C 918.800781 766.796875 1080.546875 605.054688 1080.546875 406.246094 C 1080.546875 207.4375 918.800781 45.695312 719.992188 45.695312 Z M 382.023438 476.507812 C 376.28125 461.070312 382.28125 444.164062 395.507812 435.519531 C 390.5 446.035156 389.726562 459.21875 394.441406 471.890625 C 399.152344 484.558594 408.351562 494.03125 419.019531 498.71875 C 403.355469 500.820312 387.761719 491.945312 382.019531 476.507812 Z M 429.855469 404.910156 C 417.097656 408.046875 404.253906 403.667969 395.984375 394.59375 C 393.730469 392.121094 391.816406 389.296875 390.339844 386.183594 C 389.351562 384.105469 388.5625 381.898438 387.992188 379.582031 C 383.425781 361.023438 394.765625 342.28125 413.320312 337.71875 C 414.183594 337.503906 415.042969 337.363281 415.902344 337.21875 C 410.957031 346.652344 409.503906 359.832031 412.855469 373.460938 C 416.210938 387.089844 423.613281 398.09375 432.371094 404.15625 C 431.542969 404.425781 430.714844 404.699219 429.855469 404.910156 Z M 412.542969 290.21875 C 412.34375 289.066406 412.195312 287.894531 412.109375 286.703125 C 412.027344 285.511719 412 284.332031 412.035156 283.164062 C 412.140625 279.65625 412.769531 276.265625 413.855469 273.074219 C 414.21875 272.011719 414.632812 270.972656 415.09375 269.953125 C 416.015625 267.921875 417.128906 265.988281 418.414062 264.183594 C 419.054688 263.28125 419.738281 262.410156 420.464844 261.574219 C 426.257812 254.878906 434.609375 250.394531 444.136719 249.710938 L 449.105469 318.730469 C 431.234375 320.015625 415.5625 307.492188 412.542969 290.21875 Z M 447.800781 436 C 446.253906 421.84375 453.113281 407.480469 466.332031 400.101562 L 501.941406 463.933594 C 489.824219 470.691406 475.515625 469.820312 464.5625 462.886719 C 463.566406 462.257812 462.597656 461.574219 461.660156 460.847656 C 457.914062 457.929688 454.679688 454.230469 452.222656 449.824219 C 449.765625 445.414062 448.316406 440.71875 447.800781 436 Z M 460.160156 541.59375 C 454.824219 534.558594 452.425781 526.210938 452.765625 518.027344 C 452.859375 515.6875 453.179688 513.363281 453.71875 511.085938 C 455.601562 503.113281 460.164062 495.722656 467.199219 490.390625 C 467.945312 489.824219 468.71875 489.324219 469.496094 488.824219 C 468.648438 500.042969 472.757812 513.4375 481.714844 525.25 C 490.671875 537.066406 502.460938 544.636719 513.492188 546.847656 C 512.800781 547.457031 512.113281 548.066406 511.367188 548.632812 C 495.28125 560.828125 472.355469 557.675781 460.160156 541.59375 Z M 487.242188 637.472656 C 475.066406 625.046875 473.589844 606.152344 482.640625 592.121094 C 482.328125 604.425781 487.246094 617.476562 497.238281 627.679688 C 507.234375 637.878906 520.183594 643.066406 532.488281 643.007812 C 518.277344 651.765625 499.417969 649.902344 487.242188 637.472656 Z M 548.820312 578.105469 C 546.027344 575.554688 543.71875 572.664062 541.902344 569.5625 C 534.039062 556.113281 535.417969 538.585938 546.476562 526.476562 L 600.449219 575.761719 C 589.390625 587.871094 572.058594 590.832031 557.953125 584.21875 C 554.699219 582.691406 551.617188 580.65625 548.820312 578.105469 Z M 584.046875 668.636719 C 582.988281 668.007812 581.949219 667.316406 580.933594 666.5625 C 577.894531 664.304688 575.308594 661.667969 573.1875 658.765625 C 567.535156 651.019531 565.207031 641.382812 566.53125 632.046875 C 566.695312 630.882812 566.917969 629.71875 567.199219 628.566406 C 568.320312 623.953125 570.367188 619.484375 573.375 615.429688 C 573.933594 614.679688 574.535156 613.984375 575.140625 613.285156 C 577.460938 624.296875 585.152344 636.003906 597.058594 644.84375 C 608.960938 653.679688 622.398438 657.652344 633.609375 656.691406 C 633.113281 657.46875 632.625 658.25 632.066406 659 C 620.785156 674.195312 599.960938 678.121094 584.046875 668.636719 Z M 644.964844 744.183594 C 628.785156 737.789062 619.75 721.128906 622.304688 704.632812 C 627.027344 716 636.828125 725.917969 650.113281 731.167969 C 663.394531 736.421875 677.332031 735.886719 688.546875 730.824219 C 679.128906 744.609375 661.144531 750.582031 644.964844 744.183594 Z M 682.019531 673.300781 C 680.855469 672.890625 679.699219 672.414062 678.5625 671.875 C 676.28125 670.800781 674.160156 669.515625 672.21875 668.058594 C 658.617188 657.863281 653.585938 639.191406 661.128906 623.222656 L 727.214844 654.445312 C 719.128906 671.554688 699.480469 679.484375 682.019531 673.300781 Z M 784.253906 712.695312 C 778.945312 730.769531 759.992188 741.117188 741.917969 735.8125 C 723.84375 730.503906 713.496094 711.546875 718.804688 693.476562 C 719.050781 692.636719 719.355469 691.832031 719.65625 691.027344 C 725.242188 699.917969 735.753906 707.691406 749.03125 711.589844 C 762.304688 715.488281 775.351562 714.632812 784.859375 710.175781 C 784.679688 711.015625 784.5 711.855469 784.253906 712.695312 Z M 844.710938 715.433594 C 843.539062 715.6875 842.347656 715.882812 841.140625 716.019531 C 838.730469 716.292969 836.253906 716.328125 833.738281 716.101562 C 828.714844 715.648438 824.015625 714.203125 819.828125 711.972656 C 815.636719 709.738281 811.953125 706.722656 808.957031 703.132812 C 802.957031 695.957031 799.699219 686.488281 800.601562 676.4375 L 873.402344 682.964844 C 871.941406 699.296875 859.941406 712.15625 844.710938 715.4375 Z M 989.734375 569.269531 C 986.496094 567.5625 982.929688 566.585938 979.167969 566.507812 C 965.679688 566.238281 954.1875 577.527344 951.019531 592.878906 C 957.828125 584.652344 967.828125 579.535156 978.898438 579.753906 C 978.976562 579.753906 979.050781 579.757812 979.125 579.761719 C 989.644531 580.042969 995.320312 592.539062 989.066406 601.003906 C 978.632812 615.132812 967.003906 628.308594 954.195312 640.316406 C 950.6875 643.601562 947.011719 646.339844 943.257812 648.613281 C 920.1875 662.601562 890.679688 660.25 868.773438 644.5 C 860.957031 638.878906 853.117188 634.085938 845.058594 632.8125 C 822.011719 629.207031 792.722656 652.109375 771.035156 645.042969 C 748.910156 637.832031 738.777344 602.011719 718.355469 591.585938 C 697.742188 581.007812 662.804688 593.679688 644.238281 580.132812 C 625.574219 566.488281 626.984375 529.304688 610.710938 512.980469 C 594.433594 496.65625 557.25 497.972656 543.65625 479.257812 C 530.15625 460.640625 542.925781 425.75 532.449219 405.089844 C 522.019531 384.671875 486.25 374.4375 479.085938 352.3125 C 472.070312 330.582031 495.023438 301.390625 491.417969 278.292969 C 489.777344 267.953125 482.332031 256.1875 474.894531 244.246094 C 461.476562 222.699219 464.128906 194.621094 481.753906 176.351562 C 494.644531 162.992188 508.648438 150.722656 523.605469 139.671875 C 530.914062 134.273438 541.296875 139.140625 541.71875 148.21875 L 541.726562 148.410156 C 542.207031 159.472656 537.320312 169.589844 529.253906 176.589844 C 544.527344 173.066406 555.546875 161.3125 554.964844 147.839844 C 554.796875 144.050781 553.730469 140.480469 551.933594 137.253906 C 548.070312 130.316406 551.039062 121.417969 557.957031 117.511719 C 613.585938 86.109375 679.09375 70.261719 748.632812 76.148438 C 918.300781 90.515625 1049.949219 233.71875 1051.304688 403.988281 C 1051.753906 460.464844 1038.605469 514.355469 1014.078125 561.097656 C 1009.457031 569.898438 998.53125 573.902344 989.734375 569.269531 Z M 501.378906 248.398438 C 504.617188 223.082031 503.652344 200.019531 498.363281 179.265625 C 517.453125 178.433594 533.605469 193.230469 534.4375 212.324219 C 535.269531 231.414062 520.46875 247.5625 501.378906 248.398438 Z M 557.421875 325.03125 C 565.28125 343.621094 556.585938 365.058594 537.996094 372.917969 C 535.917969 346.796875 526.914062 324.117188 509.53125 305.601562 C 528.121094 297.742188 549.5625 306.441406 557.421875 325.027344 Z M 614.453125 430.039062 C 627.003906 445.84375 624.363281 468.828125 608.5625 481.382812 C 600.847656 454.960938 586.058594 435.523438 563.109375 424.148438 C 578.914062 411.597656 601.902344 414.234375 614.453125 430.039062 Z M 703.542969 565.402344 C 691.171875 543.480469 672.125 528.371094 645.476562 521.023438 C 657.734375 504.984375 680.664062 501.921875 696.703125 514.179688 C 712.738281 526.433594 715.800781 549.367188 703.546875 565.402344 Z M 819.808594 615.683594 C 801.050781 599.605469 778.203125 591.253906 750.894531 591.335938 C 757.621094 572.308594 778.496094 562.332031 797.527344 569.054688 C 816.554688 575.78125 826.53125 596.65625 819.808594 615.683594 Z M 951.023438 629.785156 C 927.210938 625.050781 902.925781 623.003906 878.222656 623.367188 C 879.992188 603.261719 897.730469 588.402344 917.832031 590.175781 C 937.9375 591.945312 952.796875 609.683594 951.023438 629.785156 Z M 547.355469 235.242188 C 563.148438 234.585938 577.859375 244.855469 582.160156 260.753906 C 586.464844 276.652344 578.9375 292.9375 564.972656 300.335938 C 570.925781 290.320312 572.902344 277.265625 569.371094 264.214844 C 565.839844 251.164062 557.546875 240.890625 547.355469 235.242188 Z M 623.480469 365.832031 C 632.242188 379.777344 629.800781 397.550781 618.605469 408.707031 C 621.375 397.390625 619.453125 384.324219 612.261719 372.875 C 605.074219 361.425781 594.140625 354.023438 582.742188 351.597656 C 597.652344 346.359375 614.722656 351.882812 623.480469 365.832031 Z M 680.902344 458.675781 C 671.542969 448.914062 659.339844 443.871094 647.691406 443.800781 C 661.234375 435.65625 679.066406 437.613281 690.464844 449.503906 C 701.863281 461.394531 703.066406 479.292969 694.355469 492.480469 C 694.777344 480.835938 690.257812 468.433594 680.902344 458.675781 Z M 761.6875 518.011719 C 750.414062 510.550781 737.398438 508.320312 726.019531 510.816406 C 737.4375 499.890625 755.265625 497.871094 769 506.960938 C 782.734375 516.050781 787.851562 533.246094 782.261719 548.027344 C 780.109375 536.574219 772.964844 525.472656 761.691406 518.011719 Z M 861.082031 563.992188 C 849.265625 560.773438 837.304688 563.027344 828.015625 569.164062 C 835.121094 555.125 850.171875 547.289062 864.566406 551.210938 C 878.960938 555.132812 887.957031 569.523438 886.957031 585.226562 C 882.066406 575.226562 872.902344 567.214844 861.085938 563.992188 Z M 896.980469 541.027344 C 902.492188 530.964844 915.457031 525.691406 928.527344 529.011719 C 941.597656 532.335938 950.46875 543.160156 950.5 554.636719 C 945.550781 547.15625 936.902344 541 926.171875 538.273438 C 915.441406 535.542969 904.90625 536.824219 896.980469 541.027344 Z M 824.328125 505.410156 C 813.035156 499.539062 800.488281 499.007812 789.855469 502.90625 C 799.882812 490.746094 816.683594 486.503906 830.441406 493.65625 C 844.195312 500.808594 850.371094 517.003906 846.175781 532.191406 C 843.257812 521.25 835.617188 511.28125 824.328125 505.410156 Z M 824.328125 505.410156" fill="#ffffff"/></g></svg>