<svg version="1.0" preserveAspectRatio="xMidYMid meet" viewBox="348.2564679415073 38.879999664 753.2058492688413 743.579993574" zoomAndPan="magnify" xmlns:xlink="http://www.w3.org/1999/xlink" xmlns="http://www.w3.org/2000/svg" style="max-height: 500px" width="753.2058492688413" height="743.579993574"><defs><clipPath id="c01cd6ffe3"><path clip-rule="nonzero" d="M 390 73 L 1061 73 L 1061 743 L 390 743 Z M 390 73"/></clipPath><clipPath id="c9e1866126"><path clip-rule="nonzero" d="M 865.007812 860.222656 L 273.238281 547.246094 L 586.214844 -44.523438 L 1177.984375 268.453125 Z M 865.007812 860.222656"/></clipPath><clipPath id="d2e39b6102"><path clip-rule="nonzero" d="M 569.121094 703.734375 C 732.535156 790.160156 935.070312 727.75 1021.496094 564.339844 C 1107.921875 400.925781 1045.511719 198.390625 882.097656 111.964844 C 718.683594 25.539062 516.152344 87.949219 429.726562 251.363281 C 343.300781 414.777344 405.710938 617.308594 569.121094 703.734375 Z M 569.121094 703.734375"/></clipPath><clipPath id="369b9c6311"><path clip-rule="nonzero" d="M 0 0 L 671 0 L 671 670 L 0 670 Z M 0 0"/></clipPath><clipPath id="6b90ec895a"><path clip-rule="nonzero" d="M 475.007812 787.222656 L -116.761719 474.246094 L 196.214844 -117.523438 L 787.984375 195.453125 Z M 475.007812 787.222656"/></clipPath><clipPath id="d54feab58b"><path clip-rule="nonzero" d="M 179.121094 630.734375 C 342.535156 717.160156 545.070312 654.75 631.496094 491.339844 C 717.921875 327.925781 655.511719 125.390625 492.097656 38.964844 C 328.683594 -47.460938 126.152344 14.949219 39.726562 178.363281 C -46.699219 341.777344 15.710938 544.308594 179.121094 630.734375 Z M 179.121094 630.734375"/></clipPath><clipPath id="a472218c2b"><rect height="670" y="0" width="671" x="0"/></clipPath><clipPath id="49ca7dc240"><path clip-rule="nonzero" d="M 370 50 L 1091 50 L 1091 777 L 370 777 Z M 370 50"/></clipPath><clipPath id="a9f041dd64"><path clip-rule="nonzero" d="M 221.1875 456.011719 L 698.121094 -101.265625 L 1230.328125 354.207031 L 753.394531 911.484375 Z M 221.1875 456.011719"/></clipPath><clipPath id="d61a3795a2"><path clip-rule="nonzero" d="M 221.1875 456.011719 L 698.121094 -101.265625 L 1230.328125 354.207031 L 753.394531 911.484375 Z M 221.1875 456.011719"/></clipPath></defs><g clip-path="url(#c01cd6ffe3)"><g clip-path="url(#c9e1866126)"><g clip-path="url(#d2e39b6102)"><g transform="matrix(1, 0, 0, 1, 390, 73)"><g clip-path="url(#a472218c2b)"><g clip-path="url(#369b9c6311)"><g clip-path="url(#6b90ec895a)"><g clip-path="url(#d54feab58b)"><path fill-rule="nonzero" fill-opacity="1" d="M 475.007812 787.222656 L -116.761719 474.246094 L 196.214844 -117.523438 L 787.984375 195.453125 Z M 475.007812 787.222656" fill="#84a6ff"/></g></g></g></g></g></g></g></g><g clip-path="url(#49ca7dc240)"><g clip-path="url(#a9f041dd64)"><g clip-path="url(#d61a3795a2)"><path fill-rule="evenodd" fill-opacity="1" d="M 493.105469 145.359375 C 700.441406 -30.941406 926.277344 74.992188 1002.601562 162.296875 C 1128.414062 306.214844 1118.96875 510.21875 974.027344 649.597656 C 886.105469 734.152344 801.402344 770.40625 724.960938 775.59375 C 609.042969 783.457031 510.867188 719.925781 446.171875 638.179688 C 327.816406 488.625 351.339844 265.902344 493.101562 145.363281 Z M 416.457031 342.800781 C 395.277344 434.78125 413.679688 536.03125 475.898438 614.65625 C 508.050781 655.289062 549.332031 691.246094 597.503906 713.777344 C 608.648438 678.175781 620.6875 643.933594 628.609375 609.6875 C 642.015625 551.765625 643.324219 493.835938 605.480469 428.738281 C 575.789062 377.675781 501.589844 347.511719 416.460938 342.804688 Z M 809.265625 95.910156 C 723.015625 76.789062 617.910156 88.992188 517.664062 174.234375 C 473.144531 212.085938 441.699219 261.21875 424.222656 314.824219 C 517.535156 321.492188 597.292969 358.082031 630.058594 414.445312 C 695.523438 527.050781 656.164062 620.042969 623.921875 724.492188 C 654.53125 735.0625 687.523438 740.140625 722.402344 737.773438 C 791.753906 733.066406 867.992188 698.988281 947.761719 622.277344 C 1002.460938 569.675781 1035.691406 506.769531 1047.34375 441.964844 C 1016.117188 432.9375 985.089844 428.375 954.753906 421.492188 C 897.753906 408.554688 843.113281 387.933594 793.355469 321.0625 C 742.214844 252.332031 767.820312 167.3125 809.273438 95.910156 Z M 1051.058594 413.496094 C 1057.585938 333.996094 1031.984375 253.496094 974.066406 187.246094 C 946.78125 156.035156 898.160156 122.511719 837.765625 103.535156 C 819.410156 133.859375 803.488281 167.085938 796.605469 200.394531 C 789.191406 236.273438 792.46875 272.253906 816.160156 304.09375 C 860.761719 364.035156 909.953125 382.175781 961.042969 393.765625 C 990.566406 400.464844 1020.703125 405.113281 1051.066406 413.496094 Z M 1051.058594 413.496094" fill="#ffffff"/></g></g></g></svg>